<svg xmlns="http://www.w3.org/2000/svg" xmlns:xlink="http://www.w3.org/1999/xlink" width="500" zoomAndPan="magnify" viewBox="0 0 375 374.999991" height="500" preserveAspectRatio="xMidYMid meet" version="1.0"><defs><clipPath id="id1"><path d="M 4.417969 4.417969 L 370.417969 4.417969 L 370.417969 370.417969 L 4.417969 370.417969 Z M 4.417969 4.417969 " clip-rule="nonzero"/></clipPath></defs><path fill="rgb(41.958618%, 41.569519%, 73.728943%)" d="M 82.65625 168.4375 L 82.804688 270.824219 L 152.550781 216.730469 Z M 82.65625 168.4375 " fill-opacity="1" fill-rule="nonzero"/><path fill="rgb(41.958618%, 41.569519%, 73.728943%)" d="M 104.753906 143.195312 L 88.078125 154.710938 L 104.753906 166.242188 Z M 104.753906 143.195312 " fill-opacity="1" fill-rule="nonzero"/><path fill="rgb(41.958618%, 41.569519%, 73.728943%)" d="M 269.617188 143.523438 L 269.617188 165.914062 L 285.726562 154.726562 Z M 269.617188 143.523438 " fill-opacity="1" fill-rule="nonzero"/><path fill="rgb(41.958618%, 41.569519%, 73.728943%)" d="M 187.238281 120.277344 C 184.621094 120.277344 182.425781 121.503906 180.648438 123.9375 C 178.875 126.355469 177.996094 129.539062 177.996094 133.511719 C 177.996094 136.714844 178.636719 139.386719 179.898438 141.546875 C 181.160156 143.707031 182.808594 144.789062 184.859375 144.789062 C 187.878906 144.789062 190.480469 143.304688 192.65625 140.375 C 194.835938 137.429688 195.917969 134.078125 195.953125 130.289062 C 195.953125 127.25 195.054688 124.835938 193.296875 123.003906 C 191.523438 121.171875 189.507812 120.277344 187.238281 120.277344 " fill-opacity="1" fill-rule="nonzero"/><path fill="rgb(41.958618%, 41.569519%, 73.728943%)" d="M 153.941406 164.613281 C 144.953125 155.351562 140.449219 144.277344 140.449219 131.40625 C 140.449219 117.988281 145.171875 106.765625 154.617188 97.742188 C 164.082031 88.734375 175.523438 84.230469 188.941406 84.230469 C 201.71875 84.230469 212.410156 88.1875 221.015625 96.113281 C 229.617188 104.039062 233.917969 113.632812 233.917969 124.871094 C 233.917969 133.730469 231.285156 141.328125 226.03125 147.589844 C 220.777344 153.886719 214.550781 157.015625 207.339844 157.015625 C 202.433594 157.015625 198.71875 155.132812 196.191406 151.339844 C 192.859375 155.277344 188.832031 157.273438 184.109375 157.273438 C 178.835938 157.273438 174.351562 155.058594 170.597656 150.589844 C 166.847656 146.144531 164.980469 140.285156 164.980469 133.035156 C 164.980469 125.605469 167.085938 119.527344 171.296875 114.804688 C 175.523438 110.097656 180.59375 107.738281 186.527344 107.738281 C 190.261719 107.738281 193.703125 109.019531 196.832031 111.582031 L 197.234375 109.421875 C 197.453125 108.175781 198.535156 107.28125 199.816406 107.28125 L 206.972656 107.28125 C 208.546875 107.28125 209.773438 108.632812 209.589844 110.207031 L 206.351562 137.976562 C 206.132812 139.972656 206.019531 141.695312 206.019531 143.175781 C 206.019531 145.007812 206.882812 145.921875 208.566406 145.921875 C 211.695312 145.921875 214.714844 143.945312 217.628906 139.992188 C 220.519531 136.054688 221.984375 131.078125 221.984375 125.144531 C 221.984375 116.449219 218.816406 109.238281 212.464844 103.507812 C 206.113281 97.761719 198.332031 94.90625 189.105469 94.90625 C 179.113281 94.90625 170.671875 98.402344 163.828125 105.375 C 156.960938 112.351562 153.519531 121.046875 153.519531 131.460938 C 153.519531 141.070312 156.722656 149.4375 163.128906 156.558594 C 169.554688 163.679688 178.617188 167.25 190.316406 167.25 C 197.65625 167.25 205.199219 165.601562 212.886719 162.289062 C 215.871094 161.007812 219.292969 162.398438 220.5 165.402344 C 221.671875 168.3125 220.28125 171.605469 217.390625 172.851562 C 208.546875 176.640625 199.523438 178.527344 190.332031 178.527344 C 175.066406 178.527344 162.964844 173.875 153.941406 164.613281 Z M 182.882812 193.207031 C 185.425781 191.230469 188.996094 191.195312 191.578125 193.132812 C 191.597656 193.152344 191.632812 193.171875 191.6875 193.207031 L 209.957031 207.394531 L 255.246094 175.90625 L 255.335938 69.53125 L 119.214844 69.53125 L 119.125 176.164062 L 164.449219 207.503906 L 182.882812 193.207031 " fill-opacity="1" fill-rule="nonzero"/><g clip-path="url(#id1)"><path fill="rgb(41.958618%, 41.569519%, 73.728943%)" d="M 298.921875 292.351562 L 75.554688 292.371094 C 73.632812 292.371094 71.929688 291.914062 70.558594 290.558594 C 69.203125 289.203125 68.453125 287.410156 68.453125 285.488281 L 68.269531 154.726562 C 68.269531 154.671875 68.289062 154.617188 68.289062 154.5625 C 68.34375 152.257812 69.496094 150.113281 71.382812 148.796875 L 104.753906 125.730469 L 104.84375 62.355469 C 104.84375 58.402344 108.066406 55.179688 112.039062 55.179688 L 262.53125 55.179688 C 266.484375 55.179688 269.707031 58.402344 269.707031 62.355469 L 269.617188 126.023438 L 302.824219 149.125 C 304.195312 150.058594 305.183594 151.453125 305.640625 153.042969 C 305.824219 153.519531 305.917969 154.160156 305.917969 154.617188 L 306.097656 285.15625 C 306.097656 289.113281 302.878906 292.332031 298.921875 292.351562 Z M 187.183594 4.253906 C 86.15625 4.253906 4.253906 86.15625 4.253906 187.183594 C 4.253906 288.214844 86.15625 370.113281 187.183594 370.113281 C 288.214844 370.113281 370.113281 288.214844 370.113281 187.183594 C 370.113281 86.15625 288.214844 4.253906 187.183594 4.253906 " fill-opacity="1" fill-rule="nonzero"/></g><path fill="rgb(41.958618%, 41.569519%, 73.728943%)" d="M 96.644531 278.257812 L 277.578125 278.019531 L 187.277344 207.960938 Z M 96.644531 278.257812 " fill-opacity="1" fill-rule="nonzero"/><path fill="rgb(41.958618%, 41.569519%, 73.728943%)" d="M 221.855469 216.621094 L 291.710938 270.804688 L 291.566406 168.144531 Z M 221.855469 216.621094 " fill-opacity="1" fill-rule="nonzero"/></svg>