<svg xmlns="http://www.w3.org/2000/svg" xmlns:xlink="http://www.w3.org/1999/xlink" width="500" zoomAndPan="magnify" viewBox="0 0 375 374.999991" height="500" preserveAspectRatio="xMidYMid meet" version="1.0"><defs><clipPath id="id1"><path d="M 4.617188 7 L 370.617188 7 L 370.617188 369 L 4.617188 369 Z M 4.617188 7 " clip-rule="nonzero"/></clipPath></defs><g clip-path="url(#id1)"><path fill="#fd7d78" d="M 187.617188 7.667969 C 86.554688 7.667969 4.617188 89.605469 4.617188 190.667969 C 4.617188 276.417969 63.664062 348.167969 143.269531 368.023438 C 142.417969 365.554688 141.867188 362.6875 141.867188 359.132812 L 141.867188 327.855469 C 134.441406 327.855469 121.996094 327.855469 118.871094 327.855469 C 106.351562 327.855469 95.21875 322.472656 89.820312 312.46875 C 83.828125 301.351562 82.789062 284.347656 67.9375 273.949219 C 63.527344 270.484375 66.882812 266.535156 71.960938 267.070312 C 81.339844 269.722656 89.117188 276.160156 96.4375 285.707031 C 103.726562 295.265625 107.160156 297.433594 120.777344 297.433594 C 127.378906 297.433594 137.261719 297.050781 146.566406 295.585938 C 151.566406 282.882812 160.214844 271.1875 170.78125 265.667969 C 109.84375 259.398438 80.761719 229.082031 80.761719 187.921875 C 80.761719 170.203125 88.308594 153.0625 101.136719 138.621094 C 96.925781 124.285156 91.632812 95.050781 102.75 83.917969 C 130.171875 83.917969 146.746094 101.699219 150.726562 106.503906 C 164.390625 101.820312 179.398438 99.167969 195.167969 99.167969 C 210.964844 99.167969 226.03125 101.820312 239.726562 106.535156 C 243.660156 101.761719 260.253906 83.917969 287.734375 83.917969 C 298.898438 95.066406 293.542969 124.421875 289.289062 138.726562 C 302.039062 153.136719 309.542969 170.234375 309.542969 187.921875 C 309.542969 229.050781 280.503906 259.355469 219.65625 265.652344 C 236.402344 274.390625 248.617188 298.941406 248.617188 317.441406 L 248.617188 359.132812 C 248.617188 360.71875 248.265625 361.863281 248.085938 363.222656 C 319.394531 338.226562 370.617188 270.515625 370.617188 190.667969 C 370.617188 89.605469 288.679688 7.667969 187.617188 7.667969 Z M 187.617188 7.667969 " fill-opacity="1" fill-rule="nonzero"/></g></svg>