<svg xmlns="http://www.w3.org/2000/svg" xmlns:xlink="http://www.w3.org/1999/xlink" width="500" zoomAndPan="magnify" viewBox="0 0 375 374.999991" height="500" preserveAspectRatio="xMidYMid meet" version="1.0"><defs><clipPath id="id1"><path d="M 4 4.398438 L 370.75 4.398438 L 370.75 371.148438 L 4 371.148438 Z M 4 4.398438 " clip-rule="nonzero"/></clipPath></defs><g clip-path="url(#id1)"><path fill="#fd7d78" d="M 187.375 4.398438 C 86.117188 4.398438 4 86.515625 4 187.773438 C 4 289.035156 86.117188 371.148438 187.375 371.148438 C 288.636719 371.148438 370.75 289.035156 370.75 187.773438 C 370.75 86.515625 288.636719 4.398438 187.375 4.398438 Z M 134.089844 281.609375 L 89.429688 281.609375 L 89.429688 147.25 L 134.089844 147.25 Z M 111.761719 128.902344 L 111.46875 128.902344 C 96.484375 128.902344 86.789062 118.585938 86.789062 105.691406 C 86.789062 92.507812 96.78125 82.476562 112.058594 82.476562 C 127.335938 82.476562 136.734375 92.507812 137.027344 105.691406 C 137.027344 118.585938 127.335938 128.902344 111.761719 128.902344 Z M 295.125 281.609375 L 250.46875 281.609375 L 250.46875 209.730469 C 250.46875 191.664062 244.003906 179.347656 227.84375 179.347656 C 215.507812 179.347656 208.160156 187.65625 204.929688 195.679688 C 203.75 198.550781 203.460938 202.5625 203.460938 206.578125 L 203.460938 281.609375 L 158.804688 281.609375 C 158.804688 281.609375 159.390625 159.855469 158.804688 147.25 L 203.460938 147.25 L 203.460938 166.273438 C 209.398438 157.117188 220.015625 144.097656 243.710938 144.097656 C 273.09375 144.097656 295.125 163.300781 295.125 204.566406 Z M 295.125 281.609375 " fill-opacity="1" fill-rule="nonzero"/></g></svg>