<svg xmlns="http://www.w3.org/2000/svg" xmlns:xlink="http://www.w3.org/1999/xlink" width="500" zoomAndPan="magnify" viewBox="0 0 375 374.999991" height="500" preserveAspectRatio="xMidYMid meet" version="1.0"><path fill="#fd7d78" d="M 375 187.5 C 375 291.09375 291.09375 375 187.5 375 C 83.90625 375 0 291.09375 0 187.5 C 0 83.90625 83.90625 0 187.5 0 C 291.09375 0 375 83.90625 375 187.5 Z M 153.1875 286.40625 C 236.34375 286.40625 281.8125 217.5 281.8125 157.78125 C 281.8125 155.8125 281.8125 153.84375 281.71875 151.96875 C 290.53125 145.59375 298.21875 137.625 304.3125 128.53125 C 296.25 132.09375 287.53125 134.53125 278.34375 135.65625 C 287.71875 130.03125 294.84375 121.21875 298.21875 110.625 C 289.5 115.78125 279.84375 119.53125 269.53125 121.59375 C 261.28125 112.78125 249.5625 107.34375 236.53125 107.34375 C 211.59375 107.34375 191.34375 127.59375 191.34375 152.53125 C 191.34375 156.09375 191.71875 159.5625 192.5625 162.84375 C 154.96875 160.96875 121.6875 142.96875 99.375 115.59375 C 95.53125 122.25 93.28125 130.03125 93.28125 138.28125 C 93.28125 153.9375 101.25 167.8125 113.4375 175.875 C 106.03125 175.6875 99.09375 173.625 93 170.25 C 93 170.4375 93 170.625 93 170.8125 C 93 192.75 108.5625 210.9375 129.28125 215.15625 C 125.53125 216.1875 121.5 216.75 117.375 216.75 C 114.46875 216.75 111.65625 216.46875 108.84375 215.90625 C 114.5625 233.90625 131.25 246.9375 151.03125 247.3125 C 135.5625 259.40625 116.0625 266.625 94.875 266.625 C 91.21875 266.625 87.65625 266.4375 84.09375 265.96875 C 103.875 278.90625 127.6875 286.40625 153.1875 286.40625 " fill-opacity="1" fill-rule="nonzero"/></svg>